<?xml version="1.0" encoding="UTF-8" ?>
<svg id="Layer_1" xmlns="http://www.w3.org/2000/svg" viewBox="82 82 434 62"><defs><style
        >.cls-1{fill:#fff;stroke-width:0px;}</style></defs><path
        class="cls-1"
        d="M109.7539273,144.9215677v-45.4775507h-26.8424731v-16.5490232h73.2342474v16.5490232h-26.8425957v45.4775507h-19.5491785Z"
    /><rect class="cls-1" x="143.1372956" y="113.2812376" width="55.2537584" height="13.8134396" /><path
        class="cls-1"
        d="M270.5824753,107.262251c-3.3875748-1.3031151-7.8180349-1.6937874-12.6391674-1.6937874h-26.8443015v-8.3398053h46.1294867v-14.3336102h-65.0239997v62.0264418h44.0443715c6.124903,0,10.6844948-.5211149,14.0733805-1.8248855,7.1671329-2.7366727,11.9882653-9.3820352,11.9882653-18.1125128,0-8.8602648-4.5609027-14.9851678-11.7280356-17.7218405ZM261.2004402,128.7629941c-1.0422299.3913278-2.4757875.5211149-4.300673.5211149h-25.8007606v-9.9031501h25.8007606c2.0857707,0,3.7789026.1310981,5.0826731.7820001,1.5633448.7820001,2.3453449,2.2155578,2.3453449,4.0391323,0,1.82423-.9117873,3.7789026-3.1273451,4.5609027Z"
    /><path
        class="cls-1"
        d="M335.2885622,82.895048h-27.6249906l-25.4100883,62.0264418h21.370956l3.5180174-8.9913629h28.6672205l3.6491155,8.9913629h21.2405134l-25.4107438-62.0264418ZM311.8331465,122.2474187l8.9920183-25.0187605h1.4329022l8.9913629,25.0187605h-19.4162834Z"
    /><polygon
        class="cls-1"
        points="385.0195654 121.8575481 385.0195654 144.9215559 366.1256519 144.9215559 366.1256519 82.8949819 385.0195654 82.8949819 385.0195654 105.5685958 415.3814842 105.5685958 415.3814842 82.8949819 434.2764208 82.8949819 434.2764208 144.9215559 415.3814842 144.9215559 415.3814842 121.8575481 385.0195654 121.8575481"
    /><polygon
        class="cls-1"
        points="464.1837464 121.4664412 464.1837464 144.9215559 445.2888098 144.9215559 445.2888098 82.8949819 464.1837464 82.8949819 464.1837464 106.2201694 469.3961181 106.2201694 492.2000622 82.8949819 515.9152328 82.8949819 485.6843573 112.6051256 517.0885458 144.9215559 491.9389988 144.9215559 469.3961181 121.4664412 464.1837464 121.4664412"
    /></svg>
